<svg width="48" height="52" viewBox="0 0 48 52" fill="none" xmlns="http://www.w3.org/2000/svg">
    <rect width="40" height="48" rx="8" fill="#100A55" />
    <path
        d="M18.6665 18.3333C18.3932 18.3333 18.1665 18.56 18.1665 18.8333V19.8333C18.1665 20.1067 18.3932 20.3333 18.6665 20.3333C18.9398 20.3333 19.1665 20.1067 19.1665 19.8333V18.8333C19.1665 18.56 18.9398 18.3333 18.6665 18.3333Z"
        fill="#E0DEF7" />
    <path
        d="M26.6668 22.1667H26.0002V14.6533C26.0002 14.24 25.8135 13.8533 25.4868 13.6L20.8202 9.97332C20.3402 9.59332 19.6602 9.59332 19.1802 9.97332L14.5135 13.6C14.1868 13.8533 14.0002 14.24 14.0002 14.6467L13.9668 22.1667H13.3335C13.0602 22.1667 12.8335 22.3867 12.8335 22.6667C12.8335 22.94 13.0602 23.1667 13.3335 23.1667H26.6668C26.9402 23.1667 27.1668 22.94 27.1668 22.6667C27.1668 22.3867 26.9402 22.1667 26.6668 22.1667ZM19.0002 12.5H21.0002C21.2735 12.5 21.5002 12.7267 21.5002 13C21.5002 13.2733 21.2735 13.5 21.0002 13.5H19.0002C18.7268 13.5 18.5002 13.2733 18.5002 13C18.5002 12.7267 18.7268 12.5 19.0002 12.5ZM23.3335 22.1667H16.6668V16.3333C16.6668 15.78 17.1135 15.3333 17.6668 15.3333H22.3335C22.8868 15.3333 23.3335 15.78 23.3335 16.3333V22.1667Z"
        fill="#E0DEF7" />
    <path d="M8 32H26" stroke="#E0DEF7" stroke-width="2" stroke-miterlimit="10" stroke-linecap="round"
        stroke-linejoin="round" />
    <path opacity="0.5" d="M8 38H18" stroke="#E0DEF7" stroke-width="2" stroke-miterlimit="10" stroke-linecap="round"
        stroke-linejoin="round" />
    <rect x="32" y="34" width="16" height="18" rx="3" fill="#7065F0" />
    <path
        d="M39.7913 46.7495C41.9775 46.7495 43.7497 44.9773 43.7497 42.7912C43.7497 40.6051 41.9775 38.8329 39.7913 38.8329C37.6052 38.8329 35.833 40.6051 35.833 42.7912C35.833 44.9773 37.6052 46.7495 39.7913 46.7495Z"
        stroke="white" stroke-width="1.5" stroke-linecap="round" stroke-linejoin="round" />
    <path d="M44.1663 47.1662L43.333 46.3329" stroke="white" stroke-width="1.5" stroke-linecap="round"
        stroke-linejoin="round" />
</svg>