<svg width="21" height="14" viewBox="0 0 21 14" fill="none" xmlns="http://www.w3.org/2000/svg">
    <path d="M13.3672 11.9786H8.05664V2.021H13.3673L13.3672 11.9786Z" fill="#FF5F00" />
    <path
        d="M8.28233 6.99981C8.28233 4.98832 9.23216 3.19648 10.7112 2.04174C9.59166 1.16637 8.2069 0.691277 6.78112 0.693366C3.26892 0.693366 0.421875 3.51682 0.421875 6.99981C0.421875 10.4828 3.26892 13.3063 6.78112 13.3063C8.20693 13.3084 9.59173 12.8333 10.7113 11.9579C9.23237 10.8033 8.28233 9.0114 8.28233 6.99981Z"
        fill="#EB001B" />
    <path
        d="M21.0004 6.99981C21.0004 10.4828 18.1535 13.3063 14.6415 13.3063C13.2156 13.3083 11.8307 12.8332 10.7109 11.9579C12.1904 10.8031 13.1401 9.0114 13.1401 6.99981C13.1401 4.98822 12.1904 3.19648 10.7109 2.04174C11.8307 1.1664 13.2155 0.691314 14.6414 0.693366C18.1534 0.693366 21.0003 3.51682 21.0003 6.99981"
        fill="#F79E1B" />
</svg>