<svg width="32" height="12" viewBox="0 0 32 12" fill="none" xmlns="http://www.w3.org/2000/svg">
    <path
        d="M13.8719 11.0173H11.2609L12.8927 0.988286H15.5041L13.8719 11.0173ZM9.06427 0.988286L6.57501 7.88629L6.28045 6.40088L6.28071 6.40142L5.40213 1.89128C5.40213 1.89128 5.2959 0.988286 4.16354 0.988286H0.0482885L0 1.1581C0 1.1581 1.25845 1.41993 2.73125 2.30441L4.99973 11.0175H7.72025L11.8744 0.988286H9.06427ZM29.6016 11.0173H31.9991L29.9088 0.988017H27.8098C26.8406 0.988017 26.6045 1.73541 26.6045 1.73541L22.7103 11.0173H25.4322L25.9765 9.52756H29.2958L29.6016 11.0173ZM26.7284 7.46967L28.1004 3.71658L28.8722 7.46967H26.7284ZM22.9145 3.40002L23.2871 1.24636C23.2871 1.24636 22.1373 0.809082 20.9387 0.809082C19.6429 0.809082 16.5659 1.3754 16.5659 4.12918C16.5659 6.72012 20.1773 6.75231 20.1773 8.11324C20.1773 9.47417 16.938 9.23031 15.8689 8.37212L15.4807 10.624C15.4807 10.624 16.6466 11.1903 18.4279 11.1903C20.2098 11.1903 22.8978 10.2677 22.8978 7.75671C22.8978 5.14914 19.2539 4.90636 19.2539 3.77265C19.2542 2.63868 21.7971 2.78435 22.9145 3.40002Z"
        fill="#2566AF" />
    <path
        d="M6.4 6.14235L5.50473 1.92088C5.50473 1.92088 5.39648 1.07568 4.24261 1.07568H0.0492056L0 1.23463C0 1.23463 2.01551 1.61831 3.94874 3.05585C5.79723 4.42986 6.4 6.14235 6.4 6.14235Z"
        fill="#E6A540" />
</svg>