<svg width="72" height="72" viewBox="0 0 72 72" fill="none" xmlns="http://www.w3.org/2000/svg">
<rect width="72" height="72" rx="36" fill="#6154E7" fill-opacity="0.1"/>
<path d="M21.5842 30.9174C22.67 26.2883 26.2844 22.674 30.9135 21.5881C34.2565 20.804 37.7357 20.804 41.0787 21.5881C45.7077 22.674 49.3221 26.2883 50.408 30.9174C51.1921 34.2604 51.1921 37.7396 50.408 41.0826C49.3221 45.7117 45.7077 49.326 41.0787 50.4119C37.7357 51.196 34.2565 51.196 30.9135 50.4119C26.2844 49.326 22.67 45.7117 21.5842 41.0826C20.8001 37.7396 20.8001 34.2604 21.5842 30.9174Z" stroke="#6154E7" stroke-width="2.49237"/>
<path d="M35.9961 41.8332V35.1665" stroke="#6154E7" stroke-width="2.49237" stroke-linecap="round" stroke-linejoin="round"/>
<circle cx="36.0026" cy="30.9997" r="0.835877" stroke="#6154E7" stroke-width="1.66158" stroke-linecap="round" stroke-linejoin="round"/>
</svg>
